<svg width="32" height="32" viewBox="0 0 32 32" fill="none" xmlns="http://www.w3.org/2000/svg">
<g clip-path="url(#clip0_27901_71)">
<path d="M16.0001 0C7.17761 0 0 7.1775 0 15.9999C0 24.8223 7.17761 31.9999 16.0001 31.9999C24.8225 31.9999 32.0001 24.8223 32.0001 15.9999C32 7.1775 24.8225 0 16.0001 0ZM25.1787 17.6867C25.1787 18.1416 24.8086 18.5117 24.3537 18.5117H7.54331C7.0884 18.5117 6.71826 18.1416 6.71826 17.6867V14.3865C6.71826 13.9316 7.0884 13.5614 7.54331 13.5614H24.3537C24.8086 13.5614 25.1787 13.9316 25.1787 14.3865V17.6867Z" fill="#A81E00"/>
</g>
<defs>
<clipPath id="clip0_27901_71">
<rect width="32" height="32" fill="white"/>
</clipPath>
</defs>
</svg>
