<svg width="25" height="26" viewBox="0 0 25 26" fill="none" xmlns="http://www.w3.org/2000/svg">
<g clip-path="url(#clip0_27901_9)">
<path d="M22.7231 10.6269H14.7747V2.36738C14.7747 1.06 13.7604 0 12.5033 0C11.2462 0 10.2325 1.06 10.2325 2.36796V10.6326H2.28018C1.02308 10.6326 0.00109821 11.6926 0.00164884 13.0006C0.00109821 13.654 0.254942 14.253 0.666267 14.6808C1.07814 15.1097 1.6464 15.3806 2.27413 15.3806H10.2325V23.6338C10.2325 24.2877 10.4819 24.8799 10.8938 25.3071C11.3057 25.7354 11.8723 26.0006 12.5011 26.0006C13.7577 26.0006 14.7747 24.9406 14.7747 23.6338V15.38H22.7231C23.9802 15.38 24.9994 14.3108 24.9989 13.0034C24.9983 11.6966 23.9791 10.6269 22.7231 10.6269Z" fill="#00A85B"/>
</g>
<defs>
<clipPath id="clip0_27901_9">
<rect width="25" height="26" fill="white"/>
</clipPath>
</defs>
</svg>
