<svg width="41" height="41" viewBox="0 0 41 41" fill="none" xmlns="http://www.w3.org/2000/svg">
<g clip-path="url(#clip0_27901_94)">
<path d="M5.125 6.40625V1.28125C5.125 0.573039 5.69804 0 6.40625 0C7.11446 0 7.6875 0.573039 7.6875 1.28125V6.40625C7.6875 7.11446 7.11446 7.6875 6.40625 7.6875C5.69804 7.6875 5.125 7.11446 5.125 6.40625ZM26.9062 7.6875C27.6145 7.6875 28.1875 7.11446 28.1875 6.40625V1.28125C28.1875 0.573039 27.6145 0 26.9062 0C26.198 0 25.625 0.573039 25.625 1.28125V6.40625C25.625 7.11446 26.198 7.6875 26.9062 7.6875ZM41 30.75C41 36.4106 36.4105 41 30.75 41C25.0895 41 20.5 36.4105 20.5 30.75C20.5 25.0895 25.0895 20.5 30.75 20.5C36.4105 20.5 41 25.0895 41 30.75ZM38.4375 30.75C38.4375 26.5108 34.9891 23.0625 30.75 23.0625C26.5109 23.0625 23.0625 26.5109 23.0625 30.75C23.0625 34.9891 26.5109 38.4375 30.75 38.4375C34.9891 38.4375 38.4375 34.9892 38.4375 30.75ZM10.25 15.375H5.125V20.5H10.25V15.375ZM5.125 28.1875H10.25V23.0625H5.125V28.1875ZM12.8125 20.5H17.9375V15.375H12.8125V20.5ZM12.8125 28.1875H17.9375V23.0625H12.8125V28.1875ZM2.5625 30.4948V12.8125H30.75V17.9375H33.3125V7.94279C33.3125 6.38623 32.0713 5.125 30.5373 5.125H29.4688V6.40625C29.4688 7.81763 28.3201 8.96875 26.9062 8.96875C25.4924 8.96875 24.3438 7.81763 24.3438 6.40625V5.125H8.96875V6.40625C8.96875 7.81763 7.82011 8.96875 6.40625 8.96875C4.99239 8.96875 3.84375 7.81763 3.84375 6.40625V5.125H2.77647C1.24249 5.125 0 6.38623 0 7.94279V30.4948C0 32.0463 1.24249 33.3125 2.77647 33.3125H17.9375V30.75H2.77647C2.66012 30.75 2.5625 30.6299 2.5625 30.4948ZM25.625 20.5V15.375H20.5V20.5H25.625ZM34.5938 30.75H30.75V26.9062C30.75 26.198 30.177 25.625 29.4688 25.625C28.7605 25.625 28.1875 26.198 28.1875 26.9062V32.0312C28.1875 32.7395 28.7605 33.3125 29.4688 33.3125H34.5938C35.302 33.3125 35.875 32.7395 35.875 32.0312C35.875 31.323 35.302 30.75 34.5938 30.75Z" fill="#283142"/>
</g>
<defs>
<clipPath id="clip0_27901_94">
<rect width="41" height="41" fill="white"/>
</clipPath>
</defs>
</svg>
