<svg width="25" height="26" viewBox="0 0 25 26" fill="none" xmlns="http://www.w3.org/2000/svg">
<g clip-path="url(#clip0_27903_478)">
<path d="M23.7232 11.6269H15.7747V3.36738C15.7747 2.06 14.7605 1 13.5034 1C12.2463 1 11.2325 2.06 11.2325 3.36796V11.6326H3.28024C2.02314 11.6326 1.00116 12.6926 1.00171 14.0006C1.00116 14.654 1.255 15.253 1.66633 15.6808C2.0782 16.1097 2.64646 16.3806 3.27419 16.3806H11.2325V24.6338C11.2325 25.2877 11.482 25.8799 11.8939 26.3071C12.3057 26.7354 12.8723 27.0006 13.5012 27.0006C14.7577 27.0006 15.7747 25.9406 15.7747 24.6338V16.38H23.7232C24.9803 16.38 25.9995 15.3108 25.999 14.0034C25.9984 12.6966 24.9792 11.6269 23.7232 11.6269Z" fill="white"/>
</g>
<defs>
<clipPath id="clip0_27903_478">
<rect width="25" height="26" fill="white"/>
</clipPath>
</defs>
</svg>
